<svg width="370" height="362" viewBox="0 0 370 362" fill="none" xmlns="http://www.w3.org/2000/svg">
<path d="M353 0C362.389 3.22129e-08 370 7.61116 370 17V344C370 353.389 362.389 361 353 361H318C308.611 361 301 353.389 301 344V84.8232C301 83.0423 298.847 82.1499 297.587 83.4082L238.988 141.923C235.795 145.112 234 149.439 234 153.952V345C234 354.389 226.389 362 217 362H17C7.61116 362 0 354.389 0 345V130C0 120.611 7.61116 113 17 113H145.483C149.521 113 153.427 111.562 156.502 108.945L279.736 4.05469C282.811 1.43763 286.717 8.0301e-05 290.755 0H353ZM64 174V303H174V174H64Z" fill="#FBFBFB"/>
</svg>
